<?xml version="1.0" encoding="UTF-8" standalone="no"?>
<svg
   xmlns:dc="http://purl.org/dc/elements/1.1/"
   xmlns:cc="http://creativecommons.org/ns#"
   xmlns:rdf="http://www.w3.org/1999/02/22-rdf-syntax-ns#"
   xmlns:svg="http://www.w3.org/2000/svg"
   xmlns="http://www.w3.org/2000/svg"
   xmlns:sodipodi="http://sodipodi.sourceforge.net/DTD/sodipodi-0.dtd"
   xmlns:inkscape="http://www.inkscape.org/namespaces/inkscape"
   version="1.1"
   id="svg62"
   width="5153"
   height="2016"
   viewBox="0 0 5153 2016"
   sodipodi:docname="CamScanner 10-27-2020 17.54.10(1).jpg.svg"
   inkscape:version="1.0.1 (1.0.1+r73)">
  <metadata
     id="metadata68">
    <rdf:RDF>
      <cc:Work
         rdf:about="">
        <dc:format>image/svg+xml</dc:format>
        <dc:type
           rdf:resource="http://purl.org/dc/dcmitype/StillImage" />
        <dc:title></dc:title>
      </cc:Work>
    </rdf:RDF>
  </metadata>
  <defs
     id="defs66" />
  <sodipodi:namedview
     pagecolor="#ffffff"
     bordercolor="#666666"
     borderopacity="1"
     objecttolerance="10"
     gridtolerance="10"
     guidetolerance="10"
     inkscape:pageopacity="0"
     inkscape:pageshadow="2"
     inkscape:window-width="1853"
     inkscape:window-height="1025"
     id="namedview64"
     showgrid="false"
     inkscape:zoom="0.22996313"
     inkscape:cx="2073.6071"
     inkscape:cy="655.67352"
     inkscape:window-x="67"
     inkscape:window-y="27"
     inkscape:window-maximized="1"
     inkscape:current-layer="g70" />
  <g
     inkscape:groupmode="layer"
     inkscape:label="Image"
     id="g70">
    <path
       id="path74"
       style="fill:#000000;stroke-width:0.975207"
       d="M 806.73047 70.78125 C 754.23162 71.109266 667.45634 173.98097 648.61719 235.97461 C 580.06843 309.66903 561.96761 446.42701 510.54102 536.82422 C 510.05003 535.97189 509.09941 535.98139 507.81641 538.80078 C 508.17709 539.27255 508.49955 539.60947 508.79297 539.85938 C 474.92026 597.84636 426.6112 635.78309 340.95703 623.74609 C 169.77952 618.0713 343.82999 723.25652 423.48047 692.34375 C 424.46288 696.53023 425.46875 699.72998 426.47852 702.18164 C 415.00327 730.79978 395.92192 790.50118 365.80273 905.90234 C 365.27911 910.22695 364.68405 915.31392 364.10156 920.26172 C 347.27147 964.23243 309.49658 1241.4799 297.36328 1394.3145 C 321.61382 1319.2922 234.78278 1623.89 313.1543 1688.0898 C 396.50624 1684.0386 343.74326 1615.8073 349.89648 1566.918 C 367.10777 1429.6854 381.25304 1291.8482 392.43164 1153.7207 C 422.94869 1026.6161 420.40843 874.42187 509.82422 773.28711 C 616.23004 611.97139 842.80833 683.39768 1006.5234 651.42188 C 946.98953 855.31115 889.51579 1062.0765 836.56836 1267.4043 C 726.57196 1255.7824 625.82144 1345.6661 638.7207 1474.5098 C 642.47494 1674.024 809.58167 1485.5462 844.72266 1402.6504 C 954.53656 1544.0844 1128.0311 1369.7545 1245.957 1444.5 C 1388.4526 1470.3483 1173.8904 1376.8021 1255.5859 1313.5332 C 1316.3248 1149.5338 1409.3466 984.19184 1400.4355 805.30664 C 1292.2349 677.48565 1243.0495 881.87664 1221.9199 963.70312 C 1168.5638 1107.9743 1200.7918 1226.721 1130.1152 1365.5957 C 972.27448 1477.4223 1200.0001 1211.5646 1048.7422 1189.6934 C 893.31964 1135.6795 985.0837 1461.2005 905.23633 1372.9785 C 929.85089 1145.9627 994.06415 925.58647 1071.9082 711.26172 C 1049.727 644.79335 1023.9557 627.95864 1129.2168 621.89844 C 1327.0618 595.89726 1521.4592 547.14305 1717.8281 513.44727 C 2007.731 445.06646 2306.111 399.79522 2592.1738 321.94141 C 2737.6257 314.06495 2889.1867 248.86254 3004.2227 227.58398 C 3205.1157 176.87702 2955.2128 64.394331 2867.0918 147.87695 C 2789.6703 174.05514 2657.2567 210.4667 2544.7832 235.7832 C 2513.3003 244.8261 2479.5734 253.1868 2445.1367 261.2207 C 2346.671 284.19225 2242.2993 304.43674 2167.1934 329.88867 C 1986.7781 360.31654 1808.822 397.00589 1629.0547 438.52148 C 1308.119 491.05939 991.04042 583.42986 664.50781 593.15625 C 747.77949 463.25865 829.36457 323.1968 846.85742 167.57812 C 848.73207 136.07766 846.25839 113.43228 840.60352 98 C 833.53308 78.704627 821.48676 70.689052 806.73047 70.78125 z M 3024.2793 109.28516 L 3021.5938 109.93359 L 3024.2793 109.28516 z M 847.58008 125 L 849.85742 125.04297 L 847.58008 125 z M 3081.0488 146.27148 L 3078.7363 147.06836 L 3081.0488 146.27148 z M 786.87891 160.3125 C 792.6957 160.59663 793.70544 171.85366 786.2832 201.04492 C 738.69648 342.28333 689.40068 520.92942 560.8457 603.38867 C 556.76986 492.91235 664.02521 365.40807 711.29102 252.91797 C 729.75054 224.45951 771.53946 161.32267 786.30078 160.31836 C 786.4983 160.30492 786.69127 160.30333 786.87891 160.3125 z M 2693.4043 192.97266 L 2691.6758 194.08594 L 2693.4043 192.97266 z M 3071.2676 205.90234 C 3070.299 205.92433 3068.8195 207.04967 3066.8066 210.21875 C 3072.4815 215.71205 3074.1732 205.83639 3071.2676 205.90234 z M 2957.0312 229.19727 C 2957.0935 229.18603 2957.157 229.18565 2957.2207 229.19727 C 2957.598 229.26608 2957.9999 229.75415 2958.3906 230.87695 C 2953.9708 240.37657 2955.104 229.54566 2957.0312 229.19727 z M 2914.6426 254.46484 L 2918.4141 255.49805 L 2914.6426 254.46484 z M 2414.3789 266.27148 L 2412.0645 267.06836 L 2414.3789 266.27148 z M 2814.7852 280.5 L 2817.5098 280.5 L 2814.7852 280.5 z M 2605.5586 324 L 2607.375 324 L 2605.5586 324 z M 2006.8848 351 L 2008.1934 351.03125 L 2006.8848 351 z M 1749.1133 507.6543 C 1748.5546 507.72775 1748.133 508.62002 1748.2051 511 C 1753.6983 514.57881 1750.7894 507.43394 1749.1133 507.6543 z M 1889.6875 580.13477 C 1874.5709 580.12269 1856.482 582.59277 1834.9805 587.97461 C 1670.7962 687.61221 1609.9829 894.91474 1520.875 1055.3945 C 1484.5392 1180.9134 1351.6051 1445.5531 1575.5938 1459.0449 L 1601.1738 1454.0566 C 1691.6803 1374.8755 1771.1369 1415.6647 1876.3457 1419.3105 C 1998.0631 1317.0156 2159.4643 1440.8436 2304.2891 1403.1328 C 2435.0884 1373.5628 2557.3131 1377.8456 2696.627 1363.0508 C 2819.0691 1382.3652 2926.0782 1341.3623 3086.2637 1358.7031 C 3163.9541 1353.2533 3224.9765 1386.5545 3289.1992 1398.0117 C 3328.5613 1405.0339 3369.1242 1403.855 3415.4648 1380.5059 C 3437.3735 1354.5866 3448.3304 1329.2714 3450.7793 1305.4316 C 3461.5128 1200.9435 3308.6794 1124.8305 3196.8438 1150.7578 C 3064.6917 1153.2228 3154.0245 1330.5446 3041.7754 1276.6797 C 3009.7792 1339.8051 2899.5227 1035.0558 2878.9785 1205.3555 C 2889.6455 1327.3375 2769.217 1304.3081 2801.3613 1191.2227 C 2776.2897 1137.9518 2742.9019 1128.8814 2713.3203 1143.7617 C 2713.6765 1144.5456 2713.9186 1145.6172 2713.9746 1147.0645 C 2711.1265 1147.3486 2709.4484 1146.9964 2708.5605 1146.3711 C 2673.4505 1167.3527 2644.8209 1221.5483 2643.9023 1273.6094 C 2532.647 1368.3613 2657.4854 1121.2084 2562.1289 1129.1895 C 2457.2419 1034.6715 2420.3581 1424.2006 2435.8711 1219.0781 C 2477.5965 1014.4771 2065.142 1103.7219 2102.0547 1292.5898 C 1969.1645 1391.79 2066.1524 1174.8599 2096.8105 1118.9688 C 2121.9696 977.29498 2164.3152 916.77473 2168.5547 778.9082 C 2183.9093 548.44178 1896.3976 734.77003 1920.1602 894.03906 C 1918.6465 893.38418 1917.7841 893.99075 1920.0078 897.69727 C 1915.9843 920.98269 1903.1527 1019.9415 1885.1797 1168.4434 C 1881.6452 1163.2147 1894.4179 1203.4219 1895.8672 1247.9316 C 1896.6706 1248.4625 1897.6259 1249.2108 1898.7676 1250.25 C 1897.8392 1251.5745 1896.8647 1252.0482 1895.9648 1252.0137 C 1896.7833 1301.9861 1882.4205 1355.7627 1814.3242 1356.0137 C 1752.7137 1200.3358 1866.3236 987.18653 1914.1816 820.9707 C 1948.7962 721.27229 2003.5656 580.22571 1889.6875 580.13477 z M 1895.9648 1252.0137 C 1895.9425 1250.6496 1895.9114 1249.2889 1895.8672 1247.9316 C 1890.1523 1244.1556 1892.4978 1251.8805 1895.9648 1252.0137 z M 2708.5605 1146.3711 C 2710.1342 1145.4307 2711.7225 1144.5655 2713.3203 1143.7617 C 2711.3161 1139.3515 2705.663 1144.3303 2708.5605 1146.3711 z M 1993.8301 710.37305 L 1996.2344 710.37305 L 1993.8301 710.37305 z M 1976.1953 711.8125 L 1978.5918 711.92969 L 1976.1953 711.8125 z M 2078.8086 771.33594 C 2103.7709 911.92289 2037.888 965.59815 2002.1445 1111.9727 C 1997.8907 1129.2932 1983.054 1095.3271 1994.7773 1097.5352 C 2024.0582 990.38594 1979.0621 820.73233 2078.8086 771.33594 z M 1778.8281 780.97656 C 1801.3691 782.05423 1764.9961 918.57457 1745.5293 976.2832 C 1742.5271 988.95565 1739.7157 1001.9496 1736.9844 1015.1465 C 1708.4966 1152.7898 1689.2872 1313.9327 1565.7539 1394.0449 C 1560.0692 1401.4211 1556.3467 1386.8993 1551.166 1388.6504 C 1528.0604 1191.4981 1646.767 1014.3748 1727.6582 843.10547 C 1754.8149 797.91682 1770.675 780.58677 1778.8281 780.97656 z M 458.95898 860.0332 L 457.18359 860.55859 L 458.95898 860.0332 z M 1766.8613 881.69922 L 1764.3223 882.91211 L 1766.8613 881.69922 z M 1760.3301 888.68164 C 1759.5546 888.70115 1759.0783 889.43914 1759.4883 891.50586 C 1767.6704 895.03871 1762.6564 888.62313 1760.3301 888.68164 z M 2156.1309 895.39258 L 2154.4277 897.30664 L 2156.1309 895.39258 z M 1307.6445 897.19141 C 1325.3796 898.70506 1286.6972 1148.9696 1237.6562 1184.6914 C 1226.4967 1141.4931 1276.5108 1002.4611 1280.834 956.9082 C 1293.8954 915.10964 1302.4295 897.82609 1307.2148 897.20117 C 1307.3615 897.18202 1307.5049 897.17949 1307.6445 897.19141 z M 2050.291 930.36133 C 2049.9054 930.32513 2049.7534 931.01869 2050.2012 933.08789 C 2054.7091 937.15991 2051.4479 930.46991 2050.291 930.36133 z M 1322.6172 936.34961 C 1323.5613 936.23695 1324.2273 936.98788 1323.9688 939.39258 C 1314.4398 944.80261 1319.7849 936.6876 1322.6172 936.34961 z M 2008.3125 1014 L 2012.0469 1014 L 2008.3125 1014 z M 1281.9648 1050.0801 L 1283.7402 1050.6055 L 1281.9648 1050.0801 z M 2935.9746 1130.4629 L 2933.2285 1131.0684 L 2935.9746 1130.4629 z M 2718.1543 1132.957 L 2715.877 1133 L 2718.1543 1132.957 z M 1881.3496 1144 L 1883.166 1144 L 1881.3496 1144 z M 3187.123 1148.9844 L 3188.5039 1149.2363 L 3187.123 1148.9844 z M 2882.168 1152.4258 L 2880.0234 1154.2637 L 2882.168 1152.4258 z M 2677.0938 1163.8457 L 2679.5938 1163.8555 L 2677.0938 1163.8457 z M 1699.2266 1173 L 1701.0449 1173 L 1699.2266 1173 z M 318.98438 1178.7793 L 317.08398 1181.3535 L 318.98438 1178.7793 z M 2278.6211 1200.8555 C 2306.4831 1201.4127 2312.2886 1300.2947 2244.4414 1330.5684 C 2210.5529 1341.9167 2229.7692 1283.2143 2233.6289 1270.8105 C 2249.9666 1219.2475 2266.4119 1200.6113 2278.6211 1200.8555 z M 3264.6055 1219.2344 C 3306.0557 1219.3411 3358.0566 1300.1571 3259.9902 1318.9297 C 3245.1725 1321.4645 3229.6419 1309.5668 3230.1328 1293.4551 C 3226.6348 1238.3786 3244.3623 1219.1822 3264.6055 1219.2344 z M 1033.3242 1257.6992 C 1046.9619 1258.0455 1053.9339 1279.0536 1019.584 1327.6055 L 1011.7207 1326.1191 C 993.85026 1283.4518 1017.8682 1257.3068 1033.3242 1257.6992 z M 3457.2051 1269 L 3458.5137 1269.0312 L 3457.2051 1269 z M 941.31836 1302.9648 L 944.58594 1303 L 941.31836 1302.9648 z M 3456.4727 1305.3965 L 3454.7305 1305.4609 L 3456.4727 1305.3965 z M 4069.0332 1326.8145 C 3990.1934 1460.6936 3941.3611 1503.6039 3862.9648 1360.0645 C 3791.2338 1479.2496 3695.0363 1436.872 3578.4746 1447.4062 C 3361.4945 1432.9605 3145.8444 1451.5911 2928.7559 1450.5156 C 2697.9768 1475.1449 2463.6469 1461.7691 2234.4707 1488.752 C 2134.4304 1496.6072 2034.267 1504.1251 1934.0977 1512.2324 C 1934.7266 1510.4553 1933.7869 1506.6205 1931.2773 1511 C 1931.6312 1511.6175 1931.9527 1512.0651 1932.2441 1512.3848 C 1712.9267 1530.1515 1493.5898 1550.7756 1275.4902 1584.0234 C 1032.1695 1631.2819 787.37025 1670.5804 546.2207 1727.8867 C 463.84468 1751.8814 149.58972 1766.9677 306.44531 1876.8555 C 344.42516 1866.2424 381.59432 1853.4193 419.46875 1842.5039 C 616.46251 1818.3109 806.93702 1760.4082 1004.7734 1740.3262 C 1402.9406 1653.888 1810.7478 1623.9482 2216.1211 1603.4375 C 2299.3808 1602.3742 2376.0576 1590.2553 2470.5039 1586.9492 C 2470.2149 1587.3681 2470.5932 1588.2509 2472.1289 1589.8203 C 2482.6186 1591.611 2476.733 1587.8564 2472.8984 1586.8711 C 2508.1502 1585.6967 2545.8692 1585.7553 2587.3574 1588.0938 C 2713.0487 1596.8235 2959.776 1568.1118 3004.2402 1579.4473 C 3160.2746 1562.1433 3314.2345 1586.7641 3469.707 1569.0078 C 3470.2793 1568.9802 3470.7855 1568.9604 3471.3672 1568.9316 C 3658.8224 1572.7563 3850.0568 1573.6043 4039.7969 1567.0371 C 4044.3221 1573.6455 4051.455 1577.0948 4061.7402 1575.5312 C 4061.6872 1575.8736 4061.7693 1576.4132 4062.0586 1577.2344 C 4070.6122 1583.0828 4065.5473 1576.6461 4062.9629 1575.3203 C 4069.5054 1574.1043 4077.2706 1570.9224 4086.3906 1565.3379 C 4141.1586 1564.7607 4176.5422 1566.9454 4186.2207 1561.6289 C 4329.8559 1561.3755 4475.6566 1555.4255 4616.5293 1537.9395 C 4657.7569 1456.7838 4477.6075 1432.0404 4392.8633 1431.3887 C 4392.1824 1431.9267 4391.5654 1432.3749 4391.0254 1432.7168 C 4389.8262 1432.5539 4388.5896 1432.3927 4387.3242 1432.2305 C 4387.3486 1431.9627 4387.4161 1431.6726 4387.5039 1431.3711 C 4385.2415 1431.3815 4383.0391 1431.4026 4380.9453 1431.4492 C 4346.4512 1427.4319 4294.4353 1424.4858 4268.6758 1433.1426 C 4132.2017 1482.55 4160.8809 1361.9315 4069.0332 1326.8145 z M 4387.5039 1431.3711 C 4389.2326 1431.3632 4391.0434 1431.3747 4392.8633 1431.3887 C 4393.3359 1431.0152 4393.832 1430.609 4394.377 1430.1309 C 4392.4374 1423.9068 4388.4115 1428.2531 4387.5039 1431.3711 z M 776.29492 1336.2168 C 806.03756 1335.7044 786.12974 1423.2232 729.98828 1453.0918 C 688.65964 1443.2999 718.72196 1401.6439 723.89844 1378.2168 C 748.28268 1348.1038 765.53695 1336.4021 776.29492 1336.2168 z M 4123.4004 1338 L 4125.2188 1338 L 4123.4004 1338 z M 3858.668 1343.9648 L 3851.9492 1345.1133 L 3858.668 1343.9648 z M 3909.3457 1348.8086 C 3908.5573 1348.8163 3907.8614 1349.5688 3907.6758 1351.7012 C 3914.9107 1355.4656 3911.711 1348.7855 3909.3457 1348.8086 z M 3441.9883 1351 L 3439.7109 1351.043 L 3441.9883 1351 z M 3893.4336 1355.9258 L 3895.8379 1355.9258 L 3893.4336 1355.9258 z M 3907.9922 1364 L 3911.2598 1364.0352 L 3907.9922 1364 z M 4160.7598 1372.2852 L 4158.0742 1372.9336 L 4160.7598 1372.2852 z M 4026.1953 1379.5098 L 4022.1113 1379.9922 L 4026.1953 1379.5098 z M 1285.4023 1412.5332 L 1283.627 1413.0586 L 1285.4023 1412.5332 z M 4255.4707 1418.9883 C 4254.0544 1418.885 4252.5413 1419.6398 4251.2754 1421.9336 C 4264.353 1430.673 4260.529 1419.3572 4255.4707 1418.9883 z M 3770.5684 1429.5 L 3773.2949 1429.5 L 3770.5684 1429.5 z M 3623.6387 1431.3418 C 3622.9268 1431.2699 3622.0441 1432.2031 3621.2578 1435.123 C 3626.1584 1438.2649 3625.458 1431.5255 3623.6387 1431.3418 z M 3523.6055 1434.625 C 3522.7854 1434.55 3522.1958 1435.5207 3522.7422 1438.6309 C 3528.3314 1440.013 3525.4096 1434.7899 3523.6055 1434.625 z M 3648.9844 1436.7969 L 3645.0332 1437.1074 L 3648.9844 1436.7969 z M 3676.418 1439.4258 L 3678.5352 1439.8105 L 3676.418 1439.4258 z M 3043.4414 1441.3926 L 3041.7383 1443.3066 L 3043.4414 1441.3926 z M 3785.7246 1442.2422 C 3786.5033 1442.3129 3787.2485 1443.1945 3787.707 1445.4766 C 3779.7422 1452.0641 3782.9436 1441.9898 3785.7246 1442.2422 z M 3113.4082 1444.5 L 3116.0977 1444.5156 L 3113.4082 1444.5 z M 2456.2012 1460.207 C 2455.7759 1460.1249 2454.6611 1461.2475 2452.4434 1464.6426 C 2452.5346 1471.542 2457.4771 1460.4534 2456.2012 1460.207 z M 476.11719 1468.0469 L 473.89258 1469.1133 L 476.11719 1468.0469 z M 2320.0488 1472.5098 L 2315.9648 1472.9922 L 2320.0488 1472.5098 z M 443.23242 1473.2871 C 424.03522 1473.5873 414.65522 1485.4433 446.7207 1520 C 547.76818 1512.8031 481.54914 1474.0912 445.11914 1473.293 C 444.4805 1473.279 443.85169 1473.2774 443.23242 1473.2871 z M 2219.4395 1484.9414 L 2221.2949 1485.5098 L 2219.4395 1484.9414 z M 1687.5488 1526.4258 L 1684.498 1530.0215 L 1687.5488 1526.4258 z M 1493.7148 1549.584 L 1490.9512 1550.1074 L 1493.7148 1549.584 z M 4200.6348 1565.3438 L 4195.6797 1569.1172 L 4200.6348 1565.3438 z M 3670.8438 1575.9688 C 3669.9812 1576.071 3669.5493 1577.114 3670.4727 1579.918 C 3678.0657 1581.5873 3673.048 1575.7068 3670.8438 1575.9688 z M 3431.0508 1576 L 3432.8691 1576 L 3431.0508 1576 z M 3063.584 1576.873 C 3062.9811 1576.7965 3062.2264 1577.7999 3061.543 1580.9434 C 3065.6776 1584.3193 3065.1247 1577.0687 3063.584 1576.873 z M 3864.8535 1576.9668 L 3870.7129 1577.8535 L 3864.8535 1576.9668 z M 2836.3594 1585.8281 L 2832.8535 1586.6074 L 2836.3594 1585.8281 z M 2720.6328 1590 L 2722.4492 1590 L 2720.6328 1590 z M 2694.6797 1591.1543 L 2693.0527 1591.584 L 2694.6797 1591.1543 z M 2516.043 1607.9688 L 2514.7344 1608 L 2516.043 1607.9688 z M 1095.4453 1613.0254 L 1093.0898 1613.5312 L 1095.4453 1613.0254 z M 1552.7695 1658 L 1554.5859 1658 L 1552.7695 1658 z M 1530.1172 1660.1836 L 1528.4785 1660.9336 L 1530.1172 1660.1836 z M 285.53125 1669.9844 L 286.91211 1670.2363 L 285.53125 1669.9844 z M 1341.6406 1683.5 L 1343.4004 1683.5 L 1341.6406 1683.5 z M 334.02539 1769 L 335.33203 1769.0312 L 334.02539 1769 z " />
  </g>
</svg>
